<mxfile host="Electron" modified="2023-04-17T19:36:14.081Z" agent="Mozilla/5.0 (Windows NT 10.0; Win64; x64) AppleWebKit/537.36 (KHTML, like Gecko) draw.io/21.1.2 Chrome/106.0.5249.199 Electron/21.4.3 Safari/537.36" etag="lIH3fKXp8bVKrVvHY5Mm" version="21.1.2" type="device">
  <diagram id="EMrtGi0U3tdq9u1__j4z" name="Page-1">
    <mxGraphModel dx="2228" dy="1312" grid="0" gridSize="10" guides="1" tooltips="1" connect="1" arrows="1" fold="1" page="1" pageScale="1" pageWidth="850" pageHeight="1100" math="0" shadow="0">
      <root>
        <mxCell id="0" />
        <mxCell id="1" parent="0" />
        <mxCell id="ZRSunYi8uTQ0CrSBALGP-97" value="Service Provider" style="swimlane;fontStyle=1;align=center;verticalAlign=top;childLayout=stackLayout;horizontal=1;startSize=26;horizontalStack=0;resizeParent=1;resizeParentMax=0;resizeLast=0;collapsible=1;marginBottom=0;whiteSpace=wrap;html=1;" vertex="1" parent="1">
          <mxGeometry x="224" y="89" width="160" height="167" as="geometry" />
        </mxCell>
        <mxCell id="ZRSunYi8uTQ0CrSBALGP-98" value="+ name: String&lt;br&gt;+ email: String&lt;br&gt;+ password: String" style="text;strokeColor=none;fillColor=none;align=left;verticalAlign=top;spacingLeft=4;spacingRight=4;overflow=hidden;rotatable=0;points=[[0,0.5],[1,0.5]];portConstraint=eastwest;whiteSpace=wrap;html=1;" vertex="1" parent="ZRSunYi8uTQ0CrSBALGP-97">
          <mxGeometry y="26" width="160" height="72" as="geometry" />
        </mxCell>
        <mxCell id="ZRSunYi8uTQ0CrSBALGP-99" value="" style="line;strokeWidth=1;fillColor=none;align=left;verticalAlign=middle;spacingTop=-1;spacingLeft=3;spacingRight=3;rotatable=0;labelPosition=right;points=[];portConstraint=eastwest;strokeColor=inherit;" vertex="1" parent="ZRSunYi8uTQ0CrSBALGP-97">
          <mxGeometry y="98" width="160" height="8" as="geometry" />
        </mxCell>
        <mxCell id="ZRSunYi8uTQ0CrSBALGP-100" value="+ register()&lt;br&gt;+ login()" style="text;strokeColor=none;fillColor=none;align=left;verticalAlign=top;spacingLeft=4;spacingRight=4;overflow=hidden;rotatable=0;points=[[0,0.5],[1,0.5]];portConstraint=eastwest;whiteSpace=wrap;html=1;" vertex="1" parent="ZRSunYi8uTQ0CrSBALGP-97">
          <mxGeometry y="106" width="160" height="61" as="geometry" />
        </mxCell>
        <mxCell id="ZRSunYi8uTQ0CrSBALGP-101" value="Traveler" style="swimlane;fontStyle=1;align=center;verticalAlign=top;childLayout=stackLayout;horizontal=1;startSize=26;horizontalStack=0;resizeParent=1;resizeParentMax=0;resizeLast=0;collapsible=1;marginBottom=0;whiteSpace=wrap;html=1;" vertex="1" parent="1">
          <mxGeometry x="829" y="174" width="160" height="167" as="geometry" />
        </mxCell>
        <mxCell id="ZRSunYi8uTQ0CrSBALGP-102" value="+ name: String&lt;br&gt;+ email: String&lt;br&gt;+ password: String" style="text;strokeColor=none;fillColor=none;align=left;verticalAlign=top;spacingLeft=4;spacingRight=4;overflow=hidden;rotatable=0;points=[[0,0.5],[1,0.5]];portConstraint=eastwest;whiteSpace=wrap;html=1;" vertex="1" parent="ZRSunYi8uTQ0CrSBALGP-101">
          <mxGeometry y="26" width="160" height="72" as="geometry" />
        </mxCell>
        <mxCell id="ZRSunYi8uTQ0CrSBALGP-103" value="" style="line;strokeWidth=1;fillColor=none;align=left;verticalAlign=middle;spacingTop=-1;spacingLeft=3;spacingRight=3;rotatable=0;labelPosition=right;points=[];portConstraint=eastwest;strokeColor=inherit;" vertex="1" parent="ZRSunYi8uTQ0CrSBALGP-101">
          <mxGeometry y="98" width="160" height="8" as="geometry" />
        </mxCell>
        <mxCell id="ZRSunYi8uTQ0CrSBALGP-104" value="+ register()&lt;br&gt;+ login()" style="text;strokeColor=none;fillColor=none;align=left;verticalAlign=top;spacingLeft=4;spacingRight=4;overflow=hidden;rotatable=0;points=[[0,0.5],[1,0.5]];portConstraint=eastwest;whiteSpace=wrap;html=1;" vertex="1" parent="ZRSunYi8uTQ0CrSBALGP-101">
          <mxGeometry y="106" width="160" height="61" as="geometry" />
        </mxCell>
        <mxCell id="ZRSunYi8uTQ0CrSBALGP-110" value="Accomodation" style="swimlane;fontStyle=1;align=center;verticalAlign=top;childLayout=stackLayout;horizontal=1;startSize=26;horizontalStack=0;resizeParent=1;resizeParentMax=0;resizeLast=0;collapsible=1;marginBottom=0;whiteSpace=wrap;html=1;" vertex="1" parent="1">
          <mxGeometry x="49" y="630" width="160" height="256" as="geometry" />
        </mxCell>
        <mxCell id="ZRSunYi8uTQ0CrSBALGP-111" value="+ title: String&lt;br&gt;+ description: String&lt;br&gt;+ otherdescription: String&lt;br&gt;+ price: String&lt;br style=&quot;border-color: var(--border-color);&quot;&gt;+ phone: String&lt;br style=&quot;border-color: var(--border-color);&quot;&gt;+ availability: String&lt;br&gt;+ location: String&lt;br&gt;+ image: Buffer&lt;br&gt;+created: Date" style="text;strokeColor=none;fillColor=none;align=left;verticalAlign=top;spacingLeft=4;spacingRight=4;overflow=hidden;rotatable=0;points=[[0,0.5],[1,0.5]];portConstraint=eastwest;whiteSpace=wrap;html=1;" vertex="1" parent="ZRSunYi8uTQ0CrSBALGP-110">
          <mxGeometry y="26" width="160" height="150" as="geometry" />
        </mxCell>
        <mxCell id="ZRSunYi8uTQ0CrSBALGP-112" value="" style="line;strokeWidth=1;fillColor=none;align=left;verticalAlign=middle;spacingTop=-1;spacingLeft=3;spacingRight=3;rotatable=0;labelPosition=right;points=[];portConstraint=eastwest;strokeColor=inherit;" vertex="1" parent="ZRSunYi8uTQ0CrSBALGP-110">
          <mxGeometry y="176" width="160" height="8" as="geometry" />
        </mxCell>
        <mxCell id="ZRSunYi8uTQ0CrSBALGP-113" value="+ createAccomodation()&lt;br&gt;+ updateAccomodation()&lt;br&gt;+ deleteAccomodation()&lt;br&gt;" style="text;strokeColor=none;fillColor=none;align=left;verticalAlign=top;spacingLeft=4;spacingRight=4;overflow=hidden;rotatable=0;points=[[0,0.5],[1,0.5]];portConstraint=eastwest;whiteSpace=wrap;html=1;" vertex="1" parent="ZRSunYi8uTQ0CrSBALGP-110">
          <mxGeometry y="184" width="160" height="72" as="geometry" />
        </mxCell>
        <mxCell id="ZRSunYi8uTQ0CrSBALGP-114" value="Transpotation" style="swimlane;fontStyle=1;align=center;verticalAlign=top;childLayout=stackLayout;horizontal=1;startSize=26;horizontalStack=0;resizeParent=1;resizeParentMax=0;resizeLast=0;collapsible=1;marginBottom=0;whiteSpace=wrap;html=1;" vertex="1" parent="1">
          <mxGeometry x="255" y="631" width="160" height="256" as="geometry" />
        </mxCell>
        <mxCell id="ZRSunYi8uTQ0CrSBALGP-115" value="+ title: String&lt;br&gt;+ description: String&lt;br&gt;+ otherdescription: String&lt;br&gt;+ price: String&lt;br style=&quot;border-color: var(--border-color);&quot;&gt;+ phone: String&lt;br style=&quot;border-color: var(--border-color);&quot;&gt;+ availability: String&lt;br&gt;+ location: String&lt;br&gt;+ image: Buffer&lt;br&gt;+created: Date" style="text;strokeColor=none;fillColor=none;align=left;verticalAlign=top;spacingLeft=4;spacingRight=4;overflow=hidden;rotatable=0;points=[[0,0.5],[1,0.5]];portConstraint=eastwest;whiteSpace=wrap;html=1;" vertex="1" parent="ZRSunYi8uTQ0CrSBALGP-114">
          <mxGeometry y="26" width="160" height="150" as="geometry" />
        </mxCell>
        <mxCell id="ZRSunYi8uTQ0CrSBALGP-116" value="" style="line;strokeWidth=1;fillColor=none;align=left;verticalAlign=middle;spacingTop=-1;spacingLeft=3;spacingRight=3;rotatable=0;labelPosition=right;points=[];portConstraint=eastwest;strokeColor=inherit;" vertex="1" parent="ZRSunYi8uTQ0CrSBALGP-114">
          <mxGeometry y="176" width="160" height="8" as="geometry" />
        </mxCell>
        <mxCell id="ZRSunYi8uTQ0CrSBALGP-117" value="+ createTranspotation()&lt;br&gt;+ updateTranspotation()&lt;br&gt;+ deleteTranspotation()" style="text;strokeColor=none;fillColor=none;align=left;verticalAlign=top;spacingLeft=4;spacingRight=4;overflow=hidden;rotatable=0;points=[[0,0.5],[1,0.5]];portConstraint=eastwest;whiteSpace=wrap;html=1;" vertex="1" parent="ZRSunYi8uTQ0CrSBALGP-114">
          <mxGeometry y="184" width="160" height="72" as="geometry" />
        </mxCell>
        <mxCell id="ZRSunYi8uTQ0CrSBALGP-118" value="Leisure Activity" style="swimlane;fontStyle=1;align=center;verticalAlign=top;childLayout=stackLayout;horizontal=1;startSize=26;horizontalStack=0;resizeParent=1;resizeParentMax=0;resizeLast=0;collapsible=1;marginBottom=0;whiteSpace=wrap;html=1;" vertex="1" parent="1">
          <mxGeometry x="443" y="632" width="160" height="256" as="geometry" />
        </mxCell>
        <mxCell id="ZRSunYi8uTQ0CrSBALGP-119" value="+ title: String&lt;br&gt;+ description: String&lt;br&gt;+ price: String&lt;br style=&quot;border-color: var(--border-color);&quot;&gt;+ phone: String&lt;br style=&quot;border-color: var(--border-color);&quot;&gt;+ availability: String&lt;br&gt;+ location: String&lt;br&gt;+ image: Buffer&lt;br&gt;+created: Date" style="text;strokeColor=none;fillColor=none;align=left;verticalAlign=top;spacingLeft=4;spacingRight=4;overflow=hidden;rotatable=0;points=[[0,0.5],[1,0.5]];portConstraint=eastwest;whiteSpace=wrap;html=1;" vertex="1" parent="ZRSunYi8uTQ0CrSBALGP-118">
          <mxGeometry y="26" width="160" height="150" as="geometry" />
        </mxCell>
        <mxCell id="ZRSunYi8uTQ0CrSBALGP-120" value="" style="line;strokeWidth=1;fillColor=none;align=left;verticalAlign=middle;spacingTop=-1;spacingLeft=3;spacingRight=3;rotatable=0;labelPosition=right;points=[];portConstraint=eastwest;strokeColor=inherit;" vertex="1" parent="ZRSunYi8uTQ0CrSBALGP-118">
          <mxGeometry y="176" width="160" height="8" as="geometry" />
        </mxCell>
        <mxCell id="ZRSunYi8uTQ0CrSBALGP-121" value="+ createActivity()&lt;br&gt;+ updateActivity()&lt;br&gt;+ deleteActivity()" style="text;strokeColor=none;fillColor=none;align=left;verticalAlign=top;spacingLeft=4;spacingRight=4;overflow=hidden;rotatable=0;points=[[0,0.5],[1,0.5]];portConstraint=eastwest;whiteSpace=wrap;html=1;" vertex="1" parent="ZRSunYi8uTQ0CrSBALGP-118">
          <mxGeometry y="184" width="160" height="72" as="geometry" />
        </mxCell>
        <mxCell id="ZRSunYi8uTQ0CrSBALGP-122" value="Food" style="swimlane;fontStyle=1;align=center;verticalAlign=top;childLayout=stackLayout;horizontal=1;startSize=26;horizontalStack=0;resizeParent=1;resizeParentMax=0;resizeLast=0;collapsible=1;marginBottom=0;whiteSpace=wrap;html=1;" vertex="1" parent="1">
          <mxGeometry x="628" y="631" width="160" height="256" as="geometry" />
        </mxCell>
        <mxCell id="ZRSunYi8uTQ0CrSBALGP-123" value="+ title: String&lt;br&gt;+ description: String&lt;br&gt;+ price: String&lt;br style=&quot;border-color: var(--border-color);&quot;&gt;+ phone: String&lt;br&gt;+ location: String&lt;br&gt;+ image: Buffer&lt;br&gt;+created: Date" style="text;strokeColor=none;fillColor=none;align=left;verticalAlign=top;spacingLeft=4;spacingRight=4;overflow=hidden;rotatable=0;points=[[0,0.5],[1,0.5]];portConstraint=eastwest;whiteSpace=wrap;html=1;" vertex="1" parent="ZRSunYi8uTQ0CrSBALGP-122">
          <mxGeometry y="26" width="160" height="150" as="geometry" />
        </mxCell>
        <mxCell id="ZRSunYi8uTQ0CrSBALGP-124" value="" style="line;strokeWidth=1;fillColor=none;align=left;verticalAlign=middle;spacingTop=-1;spacingLeft=3;spacingRight=3;rotatable=0;labelPosition=right;points=[];portConstraint=eastwest;strokeColor=inherit;" vertex="1" parent="ZRSunYi8uTQ0CrSBALGP-122">
          <mxGeometry y="176" width="160" height="8" as="geometry" />
        </mxCell>
        <mxCell id="ZRSunYi8uTQ0CrSBALGP-125" value="+ createFood()&lt;br&gt;+ updateFood()&lt;br&gt;+ deleteFood()" style="text;strokeColor=none;fillColor=none;align=left;verticalAlign=top;spacingLeft=4;spacingRight=4;overflow=hidden;rotatable=0;points=[[0,0.5],[1,0.5]];portConstraint=eastwest;whiteSpace=wrap;html=1;" vertex="1" parent="ZRSunYi8uTQ0CrSBALGP-122">
          <mxGeometry y="184" width="160" height="72" as="geometry" />
        </mxCell>
        <mxCell id="ZRSunYi8uTQ0CrSBALGP-130" value="Reservation" style="swimlane;fontStyle=1;align=center;verticalAlign=top;childLayout=stackLayout;horizontal=1;startSize=26;horizontalStack=0;resizeParent=1;resizeParentMax=0;resizeLast=0;collapsible=1;marginBottom=0;whiteSpace=wrap;html=1;" vertex="1" parent="1">
          <mxGeometry x="912" y="482" width="160" height="167" as="geometry" />
        </mxCell>
        <mxCell id="ZRSunYi8uTQ0CrSBALGP-131" value="+ travellerUsername: String&lt;br&gt;+ serviceTitle: String&lt;br&gt;+ travellerPhone: String&lt;br&gt;+ date: Date" style="text;strokeColor=none;fillColor=none;align=left;verticalAlign=top;spacingLeft=4;spacingRight=4;overflow=hidden;rotatable=0;points=[[0,0.5],[1,0.5]];portConstraint=eastwest;whiteSpace=wrap;html=1;" vertex="1" parent="ZRSunYi8uTQ0CrSBALGP-130">
          <mxGeometry y="26" width="160" height="72" as="geometry" />
        </mxCell>
        <mxCell id="ZRSunYi8uTQ0CrSBALGP-132" value="" style="line;strokeWidth=1;fillColor=none;align=left;verticalAlign=middle;spacingTop=-1;spacingLeft=3;spacingRight=3;rotatable=0;labelPosition=right;points=[];portConstraint=eastwest;strokeColor=inherit;" vertex="1" parent="ZRSunYi8uTQ0CrSBALGP-130">
          <mxGeometry y="98" width="160" height="8" as="geometry" />
        </mxCell>
        <mxCell id="ZRSunYi8uTQ0CrSBALGP-133" value="+ confirmReservation()&lt;br&gt;+ generateReceipt()" style="text;strokeColor=none;fillColor=none;align=left;verticalAlign=top;spacingLeft=4;spacingRight=4;overflow=hidden;rotatable=0;points=[[0,0.5],[1,0.5]];portConstraint=eastwest;whiteSpace=wrap;html=1;" vertex="1" parent="ZRSunYi8uTQ0CrSBALGP-130">
          <mxGeometry y="106" width="160" height="61" as="geometry" />
        </mxCell>
        <mxCell id="ZRSunYi8uTQ0CrSBALGP-134" value="genertateRepot" style="swimlane;fontStyle=1;align=center;verticalAlign=top;childLayout=stackLayout;horizontal=1;startSize=26;horizontalStack=0;resizeParent=1;resizeParentMax=0;resizeLast=0;collapsible=1;marginBottom=0;whiteSpace=wrap;html=1;" vertex="1" parent="1">
          <mxGeometry x="345" y="970" width="160" height="103" as="geometry" />
        </mxCell>
        <mxCell id="ZRSunYi8uTQ0CrSBALGP-192" value="" style="endArrow=none;html=1;rounded=0;entryX=0.741;entryY=1.018;entryDx=0;entryDy=0;entryPerimeter=0;exitX=0.25;exitY=0;exitDx=0;exitDy=0;edgeStyle=orthogonalEdgeStyle;" edge="1" parent="ZRSunYi8uTQ0CrSBALGP-134" source="ZRSunYi8uTQ0CrSBALGP-134">
          <mxGeometry width="50" height="50" relative="1" as="geometry">
            <mxPoint x="164" y="43" as="sourcePoint" />
            <mxPoint x="-13" y="-83" as="targetPoint" />
          </mxGeometry>
        </mxCell>
        <mxCell id="ZRSunYi8uTQ0CrSBALGP-135" value="+ serviceDeatils: String&lt;br&gt;" style="text;strokeColor=none;fillColor=none;align=left;verticalAlign=top;spacingLeft=4;spacingRight=4;overflow=hidden;rotatable=0;points=[[0,0.5],[1,0.5]];portConstraint=eastwest;whiteSpace=wrap;html=1;" vertex="1" parent="ZRSunYi8uTQ0CrSBALGP-134">
          <mxGeometry y="26" width="160" height="34" as="geometry" />
        </mxCell>
        <mxCell id="ZRSunYi8uTQ0CrSBALGP-136" value="" style="line;strokeWidth=1;fillColor=none;align=left;verticalAlign=middle;spacingTop=-1;spacingLeft=3;spacingRight=3;rotatable=0;labelPosition=right;points=[];portConstraint=eastwest;strokeColor=inherit;" vertex="1" parent="ZRSunYi8uTQ0CrSBALGP-134">
          <mxGeometry y="60" width="160" height="8" as="geometry" />
        </mxCell>
        <mxCell id="ZRSunYi8uTQ0CrSBALGP-137" value="+ generateReport()" style="text;strokeColor=none;fillColor=none;align=left;verticalAlign=top;spacingLeft=4;spacingRight=4;overflow=hidden;rotatable=0;points=[[0,0.5],[1,0.5]];portConstraint=eastwest;whiteSpace=wrap;html=1;" vertex="1" parent="ZRSunYi8uTQ0CrSBALGP-134">
          <mxGeometry y="68" width="160" height="35" as="geometry" />
        </mxCell>
        <mxCell id="ZRSunYi8uTQ0CrSBALGP-140" value="" style="line;strokeWidth=1;fillColor=none;align=left;verticalAlign=middle;spacingTop=-1;spacingLeft=3;spacingRight=3;rotatable=0;labelPosition=right;points=[];portConstraint=eastwest;strokeColor=inherit;" vertex="1" parent="1">
          <mxGeometry x="131" y="564" width="582" height="8" as="geometry" />
        </mxCell>
        <mxCell id="ZRSunYi8uTQ0CrSBALGP-147" value="" style="endArrow=block;html=1;rounded=0;endFill=0;" edge="1" parent="1">
          <mxGeometry width="50" height="50" relative="1" as="geometry">
            <mxPoint x="268" y="572" as="sourcePoint" />
            <mxPoint x="268" y="513" as="targetPoint" />
          </mxGeometry>
        </mxCell>
        <mxCell id="ZRSunYi8uTQ0CrSBALGP-148" value="Services" style="swimlane;fontStyle=1;align=center;verticalAlign=top;childLayout=stackLayout;horizontal=1;startSize=26;horizontalStack=0;resizeParent=1;resizeParentMax=0;resizeLast=0;collapsible=1;marginBottom=0;whiteSpace=wrap;html=1;" vertex="1" parent="1">
          <mxGeometry x="194" y="349" width="160" height="167" as="geometry" />
        </mxCell>
        <mxCell id="ZRSunYi8uTQ0CrSBALGP-149" value="+ serviceDetails: String" style="text;strokeColor=none;fillColor=none;align=left;verticalAlign=top;spacingLeft=4;spacingRight=4;overflow=hidden;rotatable=0;points=[[0,0.5],[1,0.5]];portConstraint=eastwest;whiteSpace=wrap;html=1;" vertex="1" parent="ZRSunYi8uTQ0CrSBALGP-148">
          <mxGeometry y="26" width="160" height="72" as="geometry" />
        </mxCell>
        <mxCell id="ZRSunYi8uTQ0CrSBALGP-150" value="" style="line;strokeWidth=1;fillColor=none;align=left;verticalAlign=middle;spacingTop=-1;spacingLeft=3;spacingRight=3;rotatable=0;labelPosition=right;points=[];portConstraint=eastwest;strokeColor=inherit;" vertex="1" parent="ZRSunYi8uTQ0CrSBALGP-148">
          <mxGeometry y="98" width="160" height="8" as="geometry" />
        </mxCell>
        <mxCell id="ZRSunYi8uTQ0CrSBALGP-151" value="+ create()&lt;br&gt;+ update()&lt;br&gt;+ delete()&lt;br&gt;" style="text;strokeColor=none;fillColor=none;align=left;verticalAlign=top;spacingLeft=4;spacingRight=4;overflow=hidden;rotatable=0;points=[[0,0.5],[1,0.5]];portConstraint=eastwest;whiteSpace=wrap;html=1;" vertex="1" parent="ZRSunYi8uTQ0CrSBALGP-148">
          <mxGeometry y="106" width="160" height="61" as="geometry" />
        </mxCell>
        <mxCell id="ZRSunYi8uTQ0CrSBALGP-152" style="edgeStyle=orthogonalEdgeStyle;rounded=0;orthogonalLoop=1;jettySize=auto;html=1;entryX=0.25;entryY=0;entryDx=0;entryDy=0;endArrow=block;endFill=0;" edge="1" parent="1" source="ZRSunYi8uTQ0CrSBALGP-100" target="ZRSunYi8uTQ0CrSBALGP-148">
          <mxGeometry relative="1" as="geometry" />
        </mxCell>
        <mxCell id="ZRSunYi8uTQ0CrSBALGP-160" value="1" style="text;html=1;strokeColor=none;fillColor=none;align=center;verticalAlign=middle;whiteSpace=wrap;rounded=0;" vertex="1" parent="1">
          <mxGeometry x="183" y="200" width="60" height="30" as="geometry" />
        </mxCell>
        <mxCell id="ZRSunYi8uTQ0CrSBALGP-161" value="0.*" style="text;html=1;strokeColor=none;fillColor=none;align=center;verticalAlign=middle;whiteSpace=wrap;rounded=0;" vertex="1" parent="1">
          <mxGeometry x="187" y="319" width="60" height="30" as="geometry" />
        </mxCell>
        <mxCell id="ZRSunYi8uTQ0CrSBALGP-162" value="1" style="text;html=1;strokeColor=none;fillColor=none;align=center;verticalAlign=middle;whiteSpace=wrap;rounded=0;" vertex="1" parent="1">
          <mxGeometry x="255" y="514" width="60" height="30" as="geometry" />
        </mxCell>
        <mxCell id="ZRSunYi8uTQ0CrSBALGP-163" value="0.*" style="text;html=1;strokeColor=none;fillColor=none;align=center;verticalAlign=middle;whiteSpace=wrap;rounded=0;" vertex="1" parent="1">
          <mxGeometry x="120" y="593" width="60" height="30" as="geometry" />
        </mxCell>
        <mxCell id="ZRSunYi8uTQ0CrSBALGP-164" value="0.*" style="text;html=1;strokeColor=none;fillColor=none;align=center;verticalAlign=middle;whiteSpace=wrap;rounded=0;" vertex="1" parent="1">
          <mxGeometry x="324" y="593" width="60" height="30" as="geometry" />
        </mxCell>
        <mxCell id="ZRSunYi8uTQ0CrSBALGP-166" value="0.*" style="text;html=1;strokeColor=none;fillColor=none;align=center;verticalAlign=middle;whiteSpace=wrap;rounded=0;" vertex="1" parent="1">
          <mxGeometry x="704" y="593" width="60" height="30" as="geometry" />
        </mxCell>
        <mxCell id="ZRSunYi8uTQ0CrSBALGP-169" value="0.*" style="text;html=1;strokeColor=none;fillColor=none;align=center;verticalAlign=middle;whiteSpace=wrap;rounded=0;" vertex="1" parent="1">
          <mxGeometry x="348" y="445" width="60" height="30" as="geometry" />
        </mxCell>
        <mxCell id="ZRSunYi8uTQ0CrSBALGP-171" value="0.*" style="text;html=1;strokeColor=none;fillColor=none;align=center;verticalAlign=middle;whiteSpace=wrap;rounded=0;" vertex="1" parent="1">
          <mxGeometry x="857" y="499" width="60" height="30" as="geometry" />
        </mxCell>
        <mxCell id="ZRSunYi8uTQ0CrSBALGP-173" value="1.*" style="text;html=1;strokeColor=none;fillColor=none;align=center;verticalAlign=middle;whiteSpace=wrap;rounded=0;" vertex="1" parent="1">
          <mxGeometry x="985" y="272" width="60" height="30" as="geometry" />
        </mxCell>
        <mxCell id="ZRSunYi8uTQ0CrSBALGP-174" value="0.*" style="text;html=1;strokeColor=none;fillColor=none;align=center;verticalAlign=middle;whiteSpace=wrap;rounded=0;" vertex="1" parent="1">
          <mxGeometry x="971" y="449" width="60" height="30" as="geometry" />
        </mxCell>
        <mxCell id="ZRSunYi8uTQ0CrSBALGP-175" value="Create / Manage" style="text;html=1;strokeColor=none;fillColor=none;align=center;verticalAlign=middle;whiteSpace=wrap;rounded=0;" vertex="1" parent="1">
          <mxGeometry x="237" y="289" width="60" height="30" as="geometry" />
        </mxCell>
        <mxCell id="ZRSunYi8uTQ0CrSBALGP-176" value="Create / Manage" style="text;html=1;strokeColor=none;fillColor=none;align=center;verticalAlign=middle;whiteSpace=wrap;rounded=0;" vertex="1" parent="1">
          <mxGeometry x="288" y="525" width="60" height="30" as="geometry" />
        </mxCell>
        <mxCell id="ZRSunYi8uTQ0CrSBALGP-177" value="Reserve" style="text;html=1;strokeColor=none;fillColor=none;align=center;verticalAlign=middle;whiteSpace=wrap;rounded=0;" vertex="1" parent="1">
          <mxGeometry x="524" y="445" width="60" height="30" as="geometry" />
        </mxCell>
        <mxCell id="ZRSunYi8uTQ0CrSBALGP-178" value="Make Reservation" style="text;html=1;strokeColor=none;fillColor=none;align=center;verticalAlign=middle;whiteSpace=wrap;rounded=0;" vertex="1" parent="1">
          <mxGeometry x="965" y="391" width="60" height="30" as="geometry" />
        </mxCell>
        <mxCell id="ZRSunYi8uTQ0CrSBALGP-179" value="1.*" style="text;html=1;strokeColor=none;fillColor=none;align=center;verticalAlign=middle;whiteSpace=wrap;rounded=0;" vertex="1" parent="1">
          <mxGeometry x="772" y="272" width="60" height="30" as="geometry" />
        </mxCell>
        <mxCell id="ZRSunYi8uTQ0CrSBALGP-180" value="1.*" style="text;html=1;strokeColor=none;fillColor=none;align=center;verticalAlign=middle;whiteSpace=wrap;rounded=0;" vertex="1" parent="1">
          <mxGeometry x="348" y="377" width="60" height="30" as="geometry" />
        </mxCell>
        <mxCell id="ZRSunYi8uTQ0CrSBALGP-181" value="" style="endArrow=none;html=1;rounded=0;entryX=0;entryY=0.5;entryDx=0;entryDy=0;entryPerimeter=0;" edge="1" parent="1" source="ZRSunYi8uTQ0CrSBALGP-110" target="ZRSunYi8uTQ0CrSBALGP-140">
          <mxGeometry width="50" height="50" relative="1" as="geometry">
            <mxPoint x="566" y="707" as="sourcePoint" />
            <mxPoint x="124" y="568" as="targetPoint" />
          </mxGeometry>
        </mxCell>
        <mxCell id="ZRSunYi8uTQ0CrSBALGP-182" value="" style="endArrow=none;html=1;rounded=0;entryX=0;entryY=0.5;entryDx=0;entryDy=0;entryPerimeter=0;" edge="1" parent="1">
          <mxGeometry width="50" height="50" relative="1" as="geometry">
            <mxPoint x="315" y="630" as="sourcePoint" />
            <mxPoint x="316" y="568" as="targetPoint" />
          </mxGeometry>
        </mxCell>
        <mxCell id="ZRSunYi8uTQ0CrSBALGP-183" value="" style="endArrow=none;html=1;rounded=0;entryX=0;entryY=0.5;entryDx=0;entryDy=0;entryPerimeter=0;" edge="1" parent="1">
          <mxGeometry width="50" height="50" relative="1" as="geometry">
            <mxPoint x="516" y="631" as="sourcePoint" />
            <mxPoint x="517" y="569" as="targetPoint" />
          </mxGeometry>
        </mxCell>
        <mxCell id="ZRSunYi8uTQ0CrSBALGP-184" value="" style="endArrow=none;html=1;rounded=0;entryX=0;entryY=0.5;entryDx=0;entryDy=0;entryPerimeter=0;" edge="1" parent="1">
          <mxGeometry width="50" height="50" relative="1" as="geometry">
            <mxPoint x="712" y="630" as="sourcePoint" />
            <mxPoint x="713" y="568" as="targetPoint" />
          </mxGeometry>
        </mxCell>
        <mxCell id="ZRSunYi8uTQ0CrSBALGP-185" value="" style="endArrow=none;html=1;rounded=0;entryX=0;entryY=0.5;entryDx=0;entryDy=0;exitX=1;exitY=0.5;exitDx=0;exitDy=0;edgeStyle=orthogonalEdgeStyle;" edge="1" parent="1" source="ZRSunYi8uTQ0CrSBALGP-149" target="ZRSunYi8uTQ0CrSBALGP-104">
          <mxGeometry width="50" height="50" relative="1" as="geometry">
            <mxPoint x="484" y="505" as="sourcePoint" />
            <mxPoint x="534" y="455" as="targetPoint" />
          </mxGeometry>
        </mxCell>
        <mxCell id="ZRSunYi8uTQ0CrSBALGP-187" value="" style="endArrow=none;html=1;rounded=0;exitX=1;exitY=0.5;exitDx=0;exitDy=0;entryX=0.023;entryY=1.052;entryDx=0;entryDy=0;entryPerimeter=0;edgeStyle=orthogonalEdgeStyle;" edge="1" parent="1" source="ZRSunYi8uTQ0CrSBALGP-151" target="ZRSunYi8uTQ0CrSBALGP-131">
          <mxGeometry width="50" height="50" relative="1" as="geometry">
            <mxPoint x="458" y="493" as="sourcePoint" />
            <mxPoint x="508" y="443" as="targetPoint" />
          </mxGeometry>
        </mxCell>
        <mxCell id="ZRSunYi8uTQ0CrSBALGP-188" value="" style="endArrow=none;html=1;rounded=0;entryX=0;entryY=0.5;entryDx=0;entryDy=0;exitX=1.003;exitY=0.348;exitDx=0;exitDy=0;exitPerimeter=0;edgeStyle=orthogonalEdgeStyle;" edge="1" parent="1" source="ZRSunYi8uTQ0CrSBALGP-100" target="ZRSunYi8uTQ0CrSBALGP-131">
          <mxGeometry width="50" height="50" relative="1" as="geometry">
            <mxPoint x="458" y="493" as="sourcePoint" />
            <mxPoint x="508" y="443" as="targetPoint" />
          </mxGeometry>
        </mxCell>
        <mxCell id="ZRSunYi8uTQ0CrSBALGP-190" value="" style="endArrow=none;html=1;rounded=0;entryX=1;entryY=0.5;entryDx=0;entryDy=0;exitX=0.867;exitY=0.003;exitDx=0;exitDy=0;exitPerimeter=0;edgeStyle=orthogonalEdgeStyle;" edge="1" parent="1" source="ZRSunYi8uTQ0CrSBALGP-130" target="ZRSunYi8uTQ0CrSBALGP-104">
          <mxGeometry width="50" height="50" relative="1" as="geometry">
            <mxPoint x="458" y="493" as="sourcePoint" />
            <mxPoint x="508" y="443" as="targetPoint" />
          </mxGeometry>
        </mxCell>
        <mxCell id="ZRSunYi8uTQ0CrSBALGP-191" value="" style="endArrow=none;html=1;rounded=0;entryX=0.741;entryY=1.018;entryDx=0;entryDy=0;entryPerimeter=0;exitX=0;exitY=0.5;exitDx=0;exitDy=0;edgeStyle=orthogonalEdgeStyle;" edge="1" parent="1" source="ZRSunYi8uTQ0CrSBALGP-135" target="ZRSunYi8uTQ0CrSBALGP-113">
          <mxGeometry width="50" height="50" relative="1" as="geometry">
            <mxPoint x="783" y="1011" as="sourcePoint" />
            <mxPoint x="833" y="961" as="targetPoint" />
          </mxGeometry>
        </mxCell>
        <mxCell id="ZRSunYi8uTQ0CrSBALGP-193" value="" style="endArrow=none;html=1;rounded=0;entryX=0.741;entryY=1.018;entryDx=0;entryDy=0;entryPerimeter=0;edgeStyle=orthogonalEdgeStyle;" edge="1" parent="1" source="ZRSunYi8uTQ0CrSBALGP-134">
          <mxGeometry width="50" height="50" relative="1" as="geometry">
            <mxPoint x="689" y="1014" as="sourcePoint" />
            <mxPoint x="512" y="888" as="targetPoint" />
          </mxGeometry>
        </mxCell>
        <mxCell id="ZRSunYi8uTQ0CrSBALGP-194" value="" style="endArrow=none;html=1;rounded=0;entryX=0.741;entryY=1.018;entryDx=0;entryDy=0;entryPerimeter=0;exitX=1.016;exitY=-0.004;exitDx=0;exitDy=0;exitPerimeter=0;edgeStyle=orthogonalEdgeStyle;" edge="1" parent="1" source="ZRSunYi8uTQ0CrSBALGP-135">
          <mxGeometry width="50" height="50" relative="1" as="geometry">
            <mxPoint x="646" y="968" as="sourcePoint" />
            <mxPoint x="699" y="886" as="targetPoint" />
          </mxGeometry>
        </mxCell>
      </root>
    </mxGraphModel>
  </diagram>
</mxfile>
